<?xml version="1.0" encoding="UTF-8" standalone="no"?>
<svg width="181px" height="40px" viewBox="0 0 181 40" version="1.1" xmlns="http://www.w3.org/2000/svg" xmlns:xlink="http://www.w3.org/1999/xlink">
    <!-- Generator: Sketch 39.1 (31720) - http://www.bohemiancoding.com/sketch -->
    <title>Logo</title>
    <desc>Created with Sketch.</desc>
    <defs></defs>
    <g id="Desktop" stroke="none" stroke-width="1" >
        <g id="Desktop---Who-We-Are" transform="translate(-131.000000, -24.000000)" fill="#FFFFFF">
            <g id="Logo" transform="translate(131.000000, 24.000000)">
                <path d="M9.58642506,16.5731712 C9.59993913,15.4050249 10.6744572,14.662603 12.3240737,14.6821484 C14.9427986,14.713299 16.474092,16.2262393 17.3981535,17.3614027 L17.6230875,17.638093 L23.4890914,13.5332422 L23.2914857,13.2141016 C22.2965505,11.6061825 19.2772087,7.85742543 12.7481149,7.7798544 C5.98988272,7.6995348 1.4080151,11.2381783 1.34675135,16.5856925 C1.27227385,23.0592081 6.75928331,25.0733061 10.7654519,26.5437962 C13.2526399,27.45663 15.4007751,28.2451669 15.3836573,29.7135192 C15.3680411,31.0902521 14.1286514,31.8977237 12.0688081,31.8732919 C8.62482448,31.8323686 6.74727081,30.19788 5.49616899,28.7786967 L5.24961243,28.4989524 L-0.000150156244,32.8737749 L0.186043586,33.1678729 C1.01100199,34.4743643 4.27569904,38.7432138 11.6441662,38.8308629 C18.6684753,38.9145419 23.619427,35.0469851 23.6839942,29.4261399 C23.7584717,22.9510973 18.2876791,21.0875604 14.293523,19.7267081 C11.6537762,18.8276172 9.56870663,18.1172621 9.58642506,16.5731712 Z" id="Fill-1"></path>
                <path d="M78.9633245,16.7959283 C78.9633245,15.6274766 80.0291336,14.8725334 81.6787501,14.8725334 C84.2977753,14.8725334 85.8464867,16.3668445 86.7831614,17.4910135 L87.0116992,17.7652607 L92.8299533,13.5907791 L92.628744,13.2740817 C91.6151893,11.6780732 88.5529029,7.96565838 82.0235088,7.96565838 C75.2649763,7.96565838 70.7239511,11.5586626 70.7239511,16.9061768 C70.7239511,23.3806087 76.2337843,25.3290462 80.2567704,26.7518942 C82.7541691,27.6351044 84.9113137,28.3979879 84.9113137,29.8663402 C84.9113137,31.2433786 83.6812337,32.0655092 81.6210901,32.0655092 C78.1771064,32.0655092 76.2806331,30.45362 75.0136147,29.0494013 L74.7637547,28.7727109 L69.5647449,33.2095291 L69.7542421,33.5011839 C70.5942161,34.7979027 73.9078641,39.0276612 81.2766316,39.0276612 C88.3015413,39.0276612 93.2074461,35.101468 93.2074461,29.4803175 C93.2074461,23.0049695 87.715932,21.2064822 83.7061597,19.893272 C81.0562023,19.0256371 78.9633245,18.3400192 78.9633245,16.7959283 Z" id="Fill-4"></path>
                <polygon id="Fill-6" points="107.725212 0 101.766112 0 99.2218644 7.91071733 94.8388036 7.91071733 94.8231874 14.0073722 99.2218644 14.0073722 99.2218644 38.4672869 107.725212 38.4672869 107.725212 14.0073722 111.117242 14.0073722 113.14285 7.91071733 107.725212 7.91071733"></polygon>
                <polygon id="Fill-8" points="58.6062822 38.4672869 67.1297512 38.4672869 67.1297512 0 58.6062822 0"></polygon>
                <polygon id="Fill-10" points="115.472554 38.4672869 123.994521 38.4672869 123.994521 7.91071733 115.472554 7.91071733"></polygon>
                <polygon id="Fill-11" points="123.974731 0 117.3141 0 115.472584 5.91769176 123.990948 5.91769176"></polygon>
                <path d="M40.7154361,31.5781861 C36.4600081,31.5274901 33.4097342,28.1647557 33.4622889,23.5819574 C33.5160448,18.903875 36.6437994,15.5451108 40.8992273,15.5958068 C45.1864884,15.6468082 48.2589854,19.0791733 48.2052295,23.7572557 C48.1517739,28.4139602 45.071769,31.6301037 40.7154361,31.5781861 M40.985417,8.10287358 C32.1051767,7.99751136 25.3313283,14.6096776 25.229222,23.4842301 C25.1265152,32.4082571 31.6033546,38.9633139 40.6292464,39.0705085 C49.686671,39.1783139 56.3352892,32.7793153 56.437996,23.8552884 C56.5401023,14.9810412 49.8968897,8.20915199 40.985417,8.10287358" id="Fill-12"></path>
                <path d="M160.655018,19.9179787 C161.12801,16.8276591 163.321493,14.8563168 166.344738,14.8563168 C169.458679,14.8563168 171.686697,16.872858 172.002325,19.9179787 L160.655018,19.9179787 Z M166.236326,7.84377415 C157.971426,7.84377415 151.972684,14.4079929 151.972684,23.4517358 C151.972684,32.5440369 158.261828,38.8944773 167.266698,38.8944773 C174.202715,38.8944773 178.240116,34.7801591 179.532361,32.3488878 L179.689124,32.0538736 L174.169981,27.7984616 L173.942344,28.1383693 C173.414395,28.9259901 171.380679,31.4959119 167.375111,31.4959119 C163.563244,31.4959119 160.757725,29.1180852 160.415068,25.6625099 L180.30056,25.6625099 L180.335697,25.3103864 C180.391855,24.739598 180.391855,24.1688097 180.391855,23.6172614 C180.391855,13.7403935 175.100049,7.84377415 166.236326,7.84377415 L166.236326,7.84377415 Z" id="Fill-13"></path>
                <path d="M142.113545,15.4307393 C144.457784,15.4307393 146.528739,16.2959311 148.445934,18.0757891 L148.775377,18.3817976 L151.234035,11.2483175 L151.04634,11.1023374 C148.351336,9.00730895 145.273433,7.94513565 141.89762,7.94513565 C133.115282,7.94513565 126.492491,14.6327351 126.492491,23.5011797 C126.492491,32.4197095 132.993956,38.8923089 141.951676,38.8923089 C146.607721,38.8923089 149.829474,36.680924 150.999191,35.7299155 L151.207307,35.5604197 L148.949258,28.5484879 L148.514405,28.9137436 C147.160296,30.0510447 144.998046,31.4067053 142.383526,31.4067053 C137.870129,31.4067053 134.71805,28.133147 134.71805,23.4462081 C134.71805,18.726897 137.759014,15.4307393 142.113545,15.4307393" id="Fill-14"></path>
            </g>
        </g>
    </g>
</svg>